<?xml version="1.0" encoding="UTF-8" standalone="no"?>
<!-- Created with Inkscape (http://www.inkscape.org/) -->

<svg
   width="16.008316mm"
   height="15.994629mm"
   viewBox="0 0 16.008316 15.994629"
   version="1.1"
   id="svg5"
   xml:space="preserve"
   xmlns:inkscape="http://www.inkscape.org/namespaces/inkscape"
   xmlns:sodipodi="http://sodipodi.sourceforge.net/DTD/sodipodi-0.dtd"
   xmlns="http://www.w3.org/2000/svg"
   xmlns:svg="http://www.w3.org/2000/svg"><sodipodi:namedview
     id="namedview7"
     pagecolor="#505050"
     bordercolor="#eeeeee"
     borderopacity="1"
     inkscape:showpageshadow="0"
     inkscape:pageopacity="0"
     inkscape:pagecheckerboard="0"
     inkscape:deskcolor="#505050"
     inkscape:document-units="mm"
     showgrid="false" /><defs
     id="defs2" /><g
     inkscape:label="Layer 1"
     inkscape:groupmode="layer"
     id="layer1"
     transform="translate(-136.20739,-130.20991)"><path
       style="fill:#000000;fill-opacity:1;stroke:#000000;stroke-width:0.264583px;stroke-linecap:butt;stroke-linejoin:miter;stroke-opacity:1"
       d="m 131.94258,143.67684 -3.73937,11.64355 c -0.56839,1.57524 0.60489,2.4395 2.23914,1.97045 l 11.68832,-3.87372 c 1.70906,-0.72448 0.50776,-3.54659 -1.36587,-3.71698 -2.71202,-0.289 -4.48015,-1.45281 -4.74699,-4.00807 -0.2191,-3.419 -3.43327,-4.11245 -4.07523,-2.01523 z"
       id="path365"
       sodipodi:nodetypes="ccccccc" /><path
       style="fill:none;fill-opacity:1;stroke:#000000;stroke-width:1.5875;stroke-linecap:butt;stroke-linejoin:miter;stroke-dasharray:none;stroke-opacity:1"
       d="m 148.88326,131.22365 -10.85265,5.63695 c -1.51262,0.71862 -1.28777,2.1584 0.2031,2.97576 l 11.02826,5.47724 c 1.72382,0.68862 2.85736,-2.16138 1.64664,-3.6014 -1.72267,-2.11448 -2.15911,-4.18577 -0.54976,-6.18841 2.25132,-2.58246 0.45675,-5.33769 -1.47559,-4.30014 z"
       id="path365-0"
       sodipodi:nodetypes="ccccccc"
       inkscape:export-filename="arrow_solid_black.svg"
       inkscape:export-xdpi="96"
       inkscape:export-ydpi="96" /></g></svg>
